<svg width="52" height="52" viewBox="0 0 52 52" fill="none" xmlns="http://www.w3.org/2000/svg">
<circle cx="26" cy="26" r="25" fill="#FBF138" stroke="#2B3541" stroke-width="2"/>
<path fill-rule="evenodd" clip-rule="evenodd" d="M25.2929 31L26 31.7071L26.7071 31L36 21.7071L35.2929 21L26 30.2929L16.7071 21L16 21.7071L25.2929 31Z" fill="black"/>
<path d="M26 31.7071L25.2929 32.4142L26 33.1213L26.7071 32.4142L26 31.7071ZM26.7071 31L26 30.2929L26.7071 31ZM36 21.7071L36.7071 22.4142L37.4142 21.7071L36.7071 21L36 21.7071ZM35.2929 21L36 20.2929L35.2929 19.5858L34.5858 20.2929L35.2929 21ZM26 30.2929L25.2929 31L26 31.7071L26.7071 31L26 30.2929ZM16.7071 21L17.4142 20.2929L16.7071 19.5858L16 20.2929L16.7071 21ZM16 21.7071L15.2929 21L14.5858 21.7071L15.2929 22.4142L16 21.7071ZM26.7071 31L26 30.2929L24.5858 31.7071L25.2929 32.4142L26.7071 31ZM26 30.2929L25.2929 31L26.7071 32.4142L27.4142 31.7071L26 30.2929ZM35.2929 21L26 30.2929L27.4142 31.7071L36.7071 22.4142L35.2929 21ZM34.5858 21.7071L35.2929 22.4142L36.7071 21L36 20.2929L34.5858 21.7071ZM26.7071 31L36 21.7071L34.5858 20.2929L25.2929 29.5858L26.7071 31ZM16 21.7071L25.2929 31L26.7071 29.5858L17.4142 20.2929L16 21.7071ZM16.7071 22.4142L17.4142 21.7071L16 20.2929L15.2929 21L16.7071 22.4142ZM26 30.2929L16.7071 21L15.2929 22.4142L24.5858 31.7071L26 30.2929Z" fill="#2B3541"/>
</svg>
